<svg width="96" height="96" xmlns="http://www.w3.org/2000/svg" xmlns:xlink="http://www.w3.org/1999/xlink" xml:space="preserve" overflow="hidden"><g transform="translate(-902 -478)"><path d="M916.109 520 976.109 520 976.109 522 916.109 522Z" fill="#FFFFFF"/><path d="M984.126 555.025 908 555.025 908 511 984.126 511 984.126 514.943C984.712 514.494 985.398 514.195 986.126 514.072L986.126 495 906 495 906 557.025 986.126 557.025 986.126 531.059 984.126 533.069ZM984.126 497 984.126 509 908 509 908 497Z" fill="#FFFFFF"/><path d="M971.002 528 947.109 528 947.109 530 969.006 530 971.002 528Z" fill="#FFFFFF"/><path d="M962.938 536 947.109 536 947.109 538 962.275 538 962.938 536Z" fill="#FFFFFF"/><path d="M947.109 546 959.622 546 960.285 544 947.109 544 947.109 546Z" fill="#FFFFFF"/><path d="M963.109 503C963.109 504.105 962.214 505 961.109 505 960.005 505 959.109 504.105 959.109 503 959.109 501.895 960.005 501 961.109 501 962.214 501 963.109 501.895 963.109 503Z" fill="#FFFFFF"/><path d="M970.109 503C970.109 504.105 969.214 505 968.109 505 967.005 505 966.109 504.105 966.109 503 966.109 501.895 967.005 501 968.109 501 969.214 501 970.109 501.895 970.109 503Z" fill="#FFFFFF"/><path d="M977.109 503C977.109 504.105 976.214 505 975.109 505 974.005 505 973.109 504.105 973.109 503 973.109 501.895 974.005 501 975.109 501 976.214 501 977.109 501.895 977.109 503Z" fill="#FFFFFF"/><path d="M916.109 546 943.109 546 943.109 528 916.109 528ZM924.799 538.662 927.109 540.202 929.419 538.662 932.705 544 921.514 544ZM925.849 536.957 927.11 534.908 928.371 536.957 927.11 537.798ZM933.142 540.894 934.365 538.908 937.498 544 935.054 544ZM918.109 530 941.109 530 941.109 544 939.846 544 934.364 535.092 931.968 538.986 927.109 531.092 919.165 544 918.109 544Z" fill="#FFFFFF"/><path d="M924.109 532C924.109 532.552 923.662 533 923.109 533 922.557 533 922.109 532.552 922.109 532 922.109 531.448 922.557 531 923.109 531 923.662 531 924.109 531.448 924.109 532Z" fill="#FFFFFF"/><path d="M991.498 519.608C991.45 519.555 991.401 519.505 991.362 519.467L988.655 516.759C988.188 516.279 987.549 516.005 986.879 516 986.197 516.008 985.545 516.277 985.055 516.751L964.648 537.197 961.539 546.572 970.957 543.466 988.643 525.696 991.271 523.066C992.287 522.173 992.389 520.626 991.498 519.608ZM969.504 541.839 965.638 543.115 965.004 542.48 966.291 538.6C967.215 537.778 968.623 537.825 969.49 538.708 970.357 539.569 970.363 540.97 969.504 541.839ZM972.077 539.507C971.923 538.661 971.51 537.885 970.895 537.284 970.267 536.656 969.461 536.237 968.587 536.082L983.168 521.472 986.61 524.915ZM989.905 521.605 988.021 523.498 984.581 520.058 986.485 518.15C986.582 518.054 986.714 518 986.851 518 986.997 517.995 987.137 518.055 987.233 518.165L989.996 520.93C990.159 521.132 990.127 521.428 989.924 521.591 989.918 521.596 989.912 521.601 989.905 521.605Z" fill="#FFFFFF"/></g></svg>