<svg width="96" height="96" xmlns="http://www.w3.org/2000/svg" xmlns:xlink="http://www.w3.org/1999/xlink" xml:space="preserve" overflow="hidden"><g transform="translate(-217 -264)"><path d="M231.109 306 291.109 306 291.109 308 231.109 308Z" stroke="#000000"/><path d="M299.126 341.025 223 341.025 223 297 299.126 297 299.126 300.943C299.712 300.494 300.398 300.195 301.126 300.072L301.126 281 221 281 221 343.025 301.126 343.025 301.126 317.059 299.126 319.069ZM299.126 283 299.126 295 223 295 223 283Z" stroke="#000000"/><path d="M286.002 314 262.109 314 262.109 316 284.006 316 286.002 314Z" stroke="#000000"/><path d="M277.938 322 262.109 322 262.109 324 277.275 324 277.938 322Z" stroke="#000000"/><path d="M262.109 332 274.622 332 275.285 330 262.109 330 262.109 332Z" stroke="#000000"/><path d="M278.109 289C278.109 290.105 277.214 291 276.109 291 275.005 291 274.109 290.105 274.109 289 274.109 287.895 275.005 287 276.109 287 277.214 287 278.109 287.895 278.109 289Z" stroke="#000000"/><path d="M285.109 289C285.109 290.105 284.214 291 283.109 291 282.005 291 281.109 290.105 281.109 289 281.109 287.895 282.005 287 283.109 287 284.214 287 285.109 287.895 285.109 289Z" stroke="#000000"/><path d="M292.109 289C292.109 290.105 291.214 291 290.109 291 289.005 291 288.109 290.105 288.109 289 288.109 287.895 289.005 287 290.109 287 291.214 287 292.109 287.895 292.109 289Z" stroke="#000000"/><path d="M231.109 332 258.109 332 258.109 314 231.109 314ZM239.799 324.662 242.109 326.202 244.419 324.662 247.705 330 236.514 330ZM240.848 322.957 242.11 320.908 243.371 322.957 242.11 323.798ZM248.142 326.894 249.365 324.908 252.498 330 250.053 330ZM233.109 316 256.109 316 256.109 330 254.846 330 249.364 321.092 246.967 324.986 242.109 317.092 234.165 330 233.109 330Z" stroke="#000000"/><path d="M239.109 318C239.109 318.552 238.662 319 238.109 319 237.557 319 237.109 318.552 237.109 318 237.109 317.448 237.557 317 238.109 317 238.662 317 239.109 317.448 239.109 318Z" stroke="#000000"/><path d="M306.498 305.608C306.45 305.555 306.401 305.505 306.362 305.467L303.655 302.759C303.189 302.279 302.549 302.005 301.879 302 301.197 302.008 300.545 302.277 300.055 302.751L279.648 323.197 276.539 332.572 285.957 329.466 303.643 311.696 306.271 309.066C307.287 308.173 307.389 306.626 306.498 305.608ZM284.504 327.839 280.638 329.115 280.004 328.48 281.29 324.6C282.215 323.778 283.623 323.825 284.491 324.708 285.357 325.569 285.363 326.97 284.504 327.839ZM287.077 325.507C286.923 324.661 286.51 323.884 285.895 323.284 285.267 322.656 284.461 322.237 283.587 322.082L298.168 307.472 301.61 310.915ZM304.905 307.605 303.021 309.498 299.581 306.058 301.485 304.15C301.582 304.054 301.714 304 301.851 304 301.996 303.995 302.137 304.055 302.233 304.165L304.996 306.93C305.159 307.132 305.127 307.428 304.924 307.591 304.918 307.596 304.912 307.601 304.905 307.605Z" stroke="#000000"/></g></svg>