<svg width="96" height="96" xmlns="http://www.w3.org/2000/svg" xmlns:xlink="http://www.w3.org/1999/xlink" xml:space="preserve" overflow="hidden"><g transform="translate(-592 -312)"><path d="M673.97 393 608 393 608 327 606 327 606 395 673.97 395 673.97 393Z" fill="#FFFFFF"/><path d="M674 327 658 327 658 387 674 387ZM672 385 660 385 660 329 672 329Z" fill="#FFFFFF"/><path d="M636 387 652 387 652 349 636 349ZM638 351 650 351 650 385 638 385Z" fill="#FFFFFF"/><path d="M614 387 630 387 630 367 614 367ZM616 369 628 369 628 385 616 385Z" fill="#FFFFFF"/><path d="M614.707 359.707 643.986 330.428C643.99 330.424 643.996 330.424 644 330.428 644.002 330.43 644.003 330.432 644.003 330.435L644.003 340 646.003 340 646.003 327 633.03 327 633.03 329 642.562 329C642.568 329 642.572 329.005 642.572 329.01 642.572 329.013 642.571 329.015 642.569 329.017L613.293 358.293Z" fill="#FFFFFF"/></g></svg>