<svg width="96" height="96" xmlns="http://www.w3.org/2000/svg" xmlns:xlink="http://www.w3.org/1999/xlink" xml:space="preserve" overflow="hidden"><g transform="translate(-216 -383)"><path d="M297.97 464 232 464 232 398 230 398 230 466 297.97 466 297.97 464Z" stroke="#000000"/><path d="M298 398 282 398 282 458 298 458ZM296 456 284 456 284 400 296 400Z" stroke="#000000"/><path d="M260 458 276 458 276 420 260 420ZM262 422 274 422 274 456 262 456Z" stroke="#000000"/><path d="M238 458 254 458 254 438 238 438ZM240 440 252 440 252 456 240 456Z" stroke="#000000"/><path d="M238.707 430.707 267.986 401.428C267.99 401.424 267.996 401.424 268 401.428 268.002 401.43 268.003 401.432 268.003 401.435L268.003 411 270.003 411 270.003 398 257.03 398 257.03 400 266.562 400C266.568 400 266.572 400.005 266.572 400.01 266.572 400.013 266.571 400.015 266.569 400.017L237.293 429.293Z" stroke="#000000"/></g></svg>