<svg width="96" height="96" xmlns="http://www.w3.org/2000/svg" xmlns:xlink="http://www.w3.org/1999/xlink" xml:space="preserve" overflow="hidden"><g transform="translate(-517 -446)"><path d="M593 464C593 468.418 580.464 472 565 472 549.536 472 537 468.418 537 464 537 459.582 549.536 456 565 456 580.464 456 593 459.582 593 464Z"/><path d="M585 484C583.8 484 583 483.2 583 482 583 480.8 583.8 480 585 480 586.2 480 587 480.8 587 482 587 483.2 586.2 484 585 484ZM565 476C549.6 476 537 472.4 537 468L537 484C537 488.4 549.6 492 565 492 580.4 492 593 488.4 593 484L593 468C593 472.4 580.4 476 565 476Z"/><path d="M585 504C583.8 504 583 503.2 583 502 583 500.8 583.8 500 585 500 586.2 500 587 500.8 587 502 587 503.2 586.2 504 585 504ZM565 496C549.6 496 537 492.4 537 488L537 504C537 508.4 549.6 512 565 512 580.4 512 593 508.4 593 504L593 488C593 492.4 580.4 496 565 496Z"/><path d="M585 524C583.8 524 583 523.2 583 522 583 520.8 583.8 520 585 520 586.2 520 587 520.8 587 522 587 523.2 586.2 524 585 524ZM565 516C549.6 516 537 512.4 537 508L537 524C537 528.4 549.6 532 565 532 580.4 532 593 528.4 593 524L593 508C593 512.4 580.4 516 565 516Z"/></g></svg>