<svg width="96" height="96" xmlns="http://www.w3.org/2000/svg" xmlns:xlink="http://www.w3.org/1999/xlink" xml:space="preserve" overflow="hidden"><g transform="translate(-691 -446)"><path d="M768 525 768 465C768 459.154 753.059 456 739 456 724.941 456 710 459.154 710 465L710 525C710 530.846 724.941 534 739 534 753.059 534 768 530.846 768 525ZM739 458C754.453 458 766 461.7 766 465 766 468.3 754.453 472 739 472 723.547 472 712 468.3 712 465 712 461.7 723.547 458 739 458ZM712 468.46C716.529 472.08 728.033 474 739 474 749.967 474 761.471 472.08 766 468.46L766 485C766 488.3 754.453 492 739 492 723.547 492 712 488.3 712 485ZM712 488.46C716.529 492.08 728.033 494 739 494 749.967 494 761.471 492.08 766 488.46L766 505C766 508.3 754.453 512 739 512 723.547 512 712 508.3 712 505ZM712 525 712 508.46C716.529 512.08 728.033 514 739 514 749.967 514 761.471 512.08 766 508.46L766 525C766 528.3 754.453 532 739 532 723.547 532 712 528.3 712 525Z" fill="#FFFFFF"/><path d="M761 482C761 483.105 760.105 484 759 484 757.895 484 757 483.105 757 482 757 480.895 757.895 480 759 480 760.105 480 761 480.895 761 482Z" fill="#FFFFFF"/><path d="M761 502C761 503.105 760.105 504 759 504 757.895 504 757 503.105 757 502 757 500.895 757.895 500 759 500 760.105 500 761 500.895 761 502Z" fill="#FFFFFF"/><path d="M761 522C761 523.105 760.105 524 759 524 757.895 524 757 523.105 757 522 757 520.895 757.895 520 759 520 760.105 520 761 520.895 761 522Z" fill="#FFFFFF"/></g></svg>