<svg width="96" height="96" xmlns="http://www.w3.org/2000/svg" xmlns:xlink="http://www.w3.org/1999/xlink" xml:space="preserve" overflow="hidden"><g transform="translate(-360 -312)"><path d="M428 332 428 327C428 326.448 427.552 326 427 326 426.448 326 426 326.448 426 327L426 332 390 332 390 327C390 326.448 389.552 326 389 326 388.448 326 388 326.448 388 327L388 332 374 332 374 394 442 394 442 332ZM440 392 376 392 376 348 440 348ZM376 346 376 334 388 334 388 338C388 338.552 388.448 339 389 339 389.552 339 390 338.552 390 338L390 334 426 334 426 338C426 338.552 426.448 339 427 339 427.552 339 428 338.552 428 338L428 334 440 334 440 346Z" fill="#FFFFFF"/><path d="M401 386 434 386 434 354 382 354 382 386 401 386ZM401 384 401 376 415 376 415 384ZM401 366 415 366 415 374 401 374ZM399 374 384 374 384 366 399 366ZM417 366 432 366 432 374 417 374ZM417 384 417 376 432 376 432 384ZM432 356 432 364 417 364 417 356ZM415 356 415 364 401 364 401 356ZM399 356 399 364 384 364 384 356ZM384 384 384 376 399 376 399 384Z" fill="#FFFFFF"/></g></svg>