<svg width="96" height="96" xmlns="http://www.w3.org/2000/svg" xmlns:xlink="http://www.w3.org/1999/xlink" xml:space="preserve" overflow="hidden"><g transform="translate(-207 -53)"><path d="M275 73 275 68C275 67.4477 274.552 67 274 67 273.448 67 273 67.4477 273 68L273 73 237 73 237 68C237 67.4477 236.552 67 236 67 235.448 67 235 67.4477 235 68L235 73 221 73 221 135 289 135 289 73ZM287 133 223 133 223 89 287 89ZM223 87 223 75 235 75 235 79C235 79.5523 235.448 80 236 80 236.552 80 237 79.5523 237 79L237 75 273 75 273 79C273 79.5523 273.448 80 274 80 274.552 80 275 79.5523 275 79L275 75 287 75 287 87Z" stroke="#000000"/><path d="M248 127 281 127 281 95 229 95 229 127 248 127ZM248 125 248 117 262 117 262 125ZM248 107 262 107 262 115 248 115ZM246 115 231 115 231 107 246 107ZM264 107 279 107 279 115 264 115ZM264 125 264 117 279 117 279 125ZM279 97 279 105 264 105 264 97ZM262 97 262 105 248 105 248 97ZM246 97 246 105 231 105 231 97ZM231 125 231 117 246 117 246 125Z" stroke="#000000"/></g></svg>