<svg width="139" height="139" xmlns="http://www.w3.org/2000/svg" xmlns:xlink="http://www.w3.org/1999/xlink" xml:space="preserve" overflow="hidden"><g transform="translate(-358 -78)"><path d="M488.817 155.097C488.817 150.803 486.206 145.81 482.987 143.952L382.636 86.0145C379.417 84.1562 376.805 86.1315 376.805 90.4259L376.805 139.676C376.805 143.97 379.417 148.963 382.636 150.821L482.987 208.759C486.206 210.617 488.817 208.638 488.817 204.347L488.817 155.097Z" fill="#39549F"/><path d="M366.991 92.2658 379.004 85.6121 381.886 91.0148 376.805 97.8807 366.991 92.2658ZM475.451 215.614 487.032 208.927 476.527 202.175 475.451 215.614Z" fill="#39549F"/><path d="M477.562 161.594C477.562 157.303 474.947 152.31 471.728 150.452L371.381 92.5145C368.162 90.6563 365.546 92.6316 365.546 96.9223L365.546 146.176C365.546 150.467 368.162 155.46 371.381 157.318L471.728 215.255C474.947 217.113 477.562 215.138 477.562 210.847L477.562 161.594Z" fill="#18171C"/><path d="M421.439 153.781C421.439 153.781 404.803 121.913 397.289 110.852 396.569 109.791 394.411 106.147 393.449 105.218 392.362 104.172 389.557 102.972 388.69 102.471L371.146 92.3426C367.928 90.4844 365.316 92.4597 365.316 96.754L365.316 146.004C365.316 150.298 367.928 155.291 371.146 157.15L390.42 168.273C391.404 168.844 396.327 169.063 397.805 168.602 402.48 167.147 421.439 156.729 421.439 156.729L421.439 153.781ZM417.232 151.469C417.232 151.469 403.091 124.378 396.704 114.974 396.09 114.07 394.257 110.976 393.438 110.182 392.516 109.293 390.127 108.273 389.392 107.848L374.479 99.2377C371.743 97.6575 369.522 99.3365 369.522 102.987L369.522 144.859C369.522 148.506 371.743 152.753 374.479 154.333L390.863 163.792C391.7 164.275 395.885 164.462 397.139 164.07 401.116 162.834 417.232 153.978 417.232 153.978L417.232 151.469Z" fill="#6D8ACA"/><path d="M421.439 153.817C421.439 153.817 438.075 185.685 445.588 196.746 446.309 197.807 448.467 201.45 449.429 202.383 450.515 203.429 453.321 204.629 454.188 205.13L471.728 215.255C474.947 217.113 477.562 215.138 477.562 210.847L477.562 161.594C477.562 157.303 474.947 152.31 471.728 150.452L452.458 139.325C451.474 138.754 446.55 138.535 445.073 138.995 440.398 140.451 421.439 150.869 421.439 150.869L421.439 153.817ZM425.645 156.129C425.645 156.129 439.787 183.219 446.174 192.624 446.788 193.527 448.621 196.626 449.44 197.416 450.362 198.305 452.75 199.325 453.486 199.753L468.399 208.36C471.135 209.94 473.355 208.261 473.355 204.611L473.355 162.742C473.355 159.092 471.135 154.849 468.399 153.268L452.015 143.809C451.178 143.323 446.993 143.136 445.738 143.528 441.762 144.768 425.645 153.623 425.645 153.623L425.645 156.129Z" fill="#6D8ACA"/><path d="M417.232 151.469C417.232 151.469 403.091 124.378 396.704 114.974 396.09 114.07 394.257 110.976 393.438 110.182 392.516 109.293 390.127 108.273 389.392 107.848L374.479 99.2377C371.743 97.6575 369.522 99.3365 369.522 102.987L369.522 144.859C369.522 148.506 371.743 152.753 374.479 154.333L390.863 163.792C391.7 164.275 395.885 164.462 397.139 164.07 401.116 162.834 417.232 153.978 417.232 153.978L417.232 151.469ZM425.645 156.129C425.645 156.129 439.787 183.219 446.174 192.624 446.788 193.527 448.621 196.626 449.44 197.416 450.362 198.305 452.75 199.325 453.486 199.753L468.399 208.36C471.135 209.94 473.355 208.261 473.355 204.611L473.355 162.742C473.355 159.092 471.135 154.849 468.399 153.268L452.015 143.809C451.178 143.323 446.993 143.136 445.738 143.528 441.762 144.768 425.645 153.623 425.645 153.623L425.645 156.129Z"/><path d="M422.712 150.174 418.081 152.848 420.587 157.193 424.479 154.947 422.712 150.174Z" fill="#6D8ACA"/><path d="M380.28 133.783 378.865 132.967C378.711 132.667 378.638 132.027 378.638 131.039L378.638 131.029 378.645 130.59 378.66 129.649C378.66 129.397 378.513 129.185 378.217 129.017L378.217 132.583 376.805 131.767 376.805 124.331 378.55 125.337C378.953 125.571 379.306 125.883 379.589 126.255 379.875 126.61 380.032 127.053 380.031 127.51L380.031 128.402C380.031 128.98 379.743 129.203 379.157 129.068 379.743 129.569 380.039 130.147 380.039 130.805L380.017 131.606C380.017 132.799 380.105 133.523 380.28 133.783ZM378.652 127.97 378.652 126.741C378.652 126.482 378.51 126.27 378.217 126.101L378.217 128.113C378.51 128.281 378.652 128.234 378.652 127.97ZM383.422 129.123 382.632 128.665 382.632 135.133 381.22 134.317 381.22 127.85 380.427 127.393 380.427 126.423 383.422 128.153 383.422 129.123ZM387.695 138.055 386.177 137.177 385.529 134.412 384.926 136.453 383.572 135.674 384.684 132.089 383.861 128.402 385.222 129.189 385.723 131.636 386.286 129.803 387.556 130.538 386.59 133.424 387.695 138.055ZM389.483 135.97 390.782 136.72 390.782 138.483C390.782 138.666 390.866 138.805 391.038 138.904 391.206 139.003 391.294 138.962 391.294 138.78L391.294 137.057C391.302 136.889 391.257 136.723 391.166 136.581 391.034 136.423 390.871 136.292 390.687 136.197L390.687 135.359C391.089 135.59 391.294 135.564 391.294 135.272L391.294 133.955C391.294 133.805 391.206 133.684 391.038 133.585 390.859 133.483 390.771 133.505 390.771 133.655L390.771 135.023 389.52 134.299 389.52 132.92C389.52 132.042 390.043 131.906 391.097 132.514 391.517 132.759 391.887 133.077 392.201 133.468 392.503 133.824 392.67 134.275 392.673 134.741L392.673 135.762C392.673 136.358 392.428 136.614 391.938 136.537 392.444 137.002 392.721 137.665 392.695 138.352L392.695 139.456C392.695 140.491 392.161 140.7 391.1 140.089 390.021 139.464 389.483 138.684 389.483 137.744L389.483 135.97ZM392.944 139.815 392.944 135.027C392.944 134.065 393.5 133.904 394.612 134.544 395.702 135.173 396.247 135.967 396.247 136.925L396.247 141.71C396.247 142.138 396.093 142.383 395.786 142.441 395.479 142.5 395.084 142.39 394.601 142.108 394.134 141.847 393.726 141.494 393.401 141.069 393.115 140.713 392.954 140.272 392.944 139.815ZM394.831 140.982 394.831 135.915C394.831 135.765 394.755 135.648 394.601 135.561 394.44 135.466 394.359 135.495 394.359 135.641L394.359 140.711C394.359 140.857 394.44 140.978 394.601 141.073 394.755 141.161 394.831 141.132 394.831 140.982ZM396.518 140.042 397.893 140.835 397.893 142.73C397.893 142.891 397.973 143.019 398.131 143.111 398.284 143.198 398.361 143.162 398.361 143.001L398.361 140.791C398.259 140.857 398.072 140.81 397.794 140.649 397.428 140.439 397.113 140.15 396.872 139.804 396.646 139.489 396.522 139.112 396.518 138.725L396.518 136.991C396.518 136.559 396.664 136.311 396.96 136.248 397.257 136.186 397.644 136.292 398.12 136.57 398.606 136.848 398.998 137.192 399.294 137.594 399.574 137.951 399.731 138.389 399.74 138.842L399.74 143.634C399.74 144.596 399.199 144.764 398.112 144.135 397.048 143.52 396.518 142.737 396.518 141.783L396.518 140.042ZM398.361 139.749 398.361 137.964C398.363 137.805 398.273 137.658 398.131 137.587 397.973 137.496 397.893 137.532 397.893 137.693L397.893 139.478C397.893 139.639 397.973 139.767 398.131 139.859 398.284 139.946 398.361 139.91 398.361 139.749ZM400 143.89 400 139.101C400 138.136 400.556 137.975 401.668 138.619 402.758 139.248 403.303 140.042 403.303 140.996L403.303 145.784C403.303 146.212 403.149 146.458 402.842 146.512 402.535 146.571 402.14 146.461 401.657 146.183 401.189 145.923 400.78 145.568 400.457 145.141 400.171 144.785 400.01 144.346 400 143.89ZM401.887 145.057 401.887 139.99C401.887 139.84 401.811 139.723 401.657 139.632 401.496 139.54 401.416 139.57 401.416 139.716L401.416 144.782C401.416 144.932 401.496 145.053 401.657 145.148 401.811 145.236 401.887 145.203 401.887 145.057Z" fill="#A8A8A8"/><path d="M453.661 150.69C463.088 156.133 470.74 169.393 470.74 180.278 470.74 191.164 463.088 195.583 453.661 190.14 444.231 184.697 436.579 171.437 436.579 160.551 436.579 149.669 444.231 145.247 453.661 150.69Z" fill="#3B57A6"/><path d="M452.198 151.535C461.625 156.978 469.28 170.234 469.28 181.12 469.28 192.006 461.625 196.424 452.198 190.981 442.772 185.538 435.116 172.282 435.116 161.396 435.116 150.51 442.772 146.092 452.198 151.535Z" fill="#4762AF"/><path d="M452.198 165.65C454.879 167.198 457.056 170.969 457.056 174.064 457.056 177.158 454.879 178.413 452.198 176.866 449.517 175.318 447.34 171.551 447.34 168.456 447.34 165.358 449.517 164.103 452.198 165.65Z" fill="#6D8ACA"/><path d="M452.198 166.975C454.247 168.156 455.907 171.035 455.907 173.402 455.907 175.765 454.247 176.723 452.198 175.541 450.15 174.36 448.489 171.481 448.489 169.118 448.489 166.751 450.15 165.793 452.198 166.975Z" fill="#39549F"/><path d="M449.864 150.745C445.369 148.147 441.722 149.237 441.722 153.17 441.722 157.106 445.369 162.41 449.864 165.003 448.515 162.563 447.421 159.308 447.421 156.462 447.421 153.62 448.515 151.63 449.864 150.745ZM461.325 159.875C457.652 154.765 453.087 152.296 451.145 154.362 449.199 156.429 450.603 162.252 454.279 167.362 453.998 164.955 454.4 162.336 455.805 160.84 457.209 159.348 459.401 159.216 461.325 159.875Z" fill="#6D8ACA"/><path d="M468.714 176.017C468.033 170.494 464.745 164.915 461.376 163.565 458.007 162.219 455.827 165.61 456.507 171.134 457.725 170.047 459.807 169.597 462.239 170.574 464.675 171.547 467.086 173.789 468.714 176.017Z" fill="#6D8ACA"/><path d="M465.103 190.18C468.695 189.138 469.807 184.478 467.587 179.785 465.367 175.091 460.648 172.129 457.056 173.175 459.071 174.846 461.427 177.718 463.033 181.109 464.635 184.503 465.242 187.883 465.103 190.18ZM451.92 189.975C456.214 193.985 460.615 194.347 461.742 190.784 462.872 187.217 460.3 181.069 456.006 177.056 456.818 179.766 457.111 183.121 456.295 185.696 455.479 188.271 453.683 189.672 451.92 189.975Z" fill="#6D8ACA"/><path d="M441.572 179.393C444.25 185.107 448.719 189.101 451.543 188.311 454.364 187.521 454.481 182.239 451.803 176.525 451.412 178.574 450.183 180.491 448.142 181.065 446.1 181.635 443.569 180.772 441.572 179.393Z" fill="#6D8ACA"/><path d="M436.016 166.532C436.436 171.821 439.534 177.407 442.936 178.994 446.338 180.582 448.756 177.575 448.339 172.282 447.026 173.2 444.864 173.431 442.406 172.282 439.948 171.137 437.581 168.789 436.016 166.532Z" fill="#6D8ACA"/><path d="M436.231 155.024C434.574 158.763 435.789 164.48 438.938 167.783 442.088 171.082 445.994 170.728 447.651 166.986 445.822 166.711 443.317 165.424 441.042 163.039 438.895 160.733 437.256 158.003 436.231 155.024Z" fill="#6D8ACA"/><path d="M395.362 88.4067 384.139 81.9286 384.139 93.2607 395.362 99.7425 395.362 88.4067Z" fill="#283961"/><path d="M395.362 84.4818 384.139 78 384.139 83.3296 395.362 89.8077 395.362 84.4818Z" fill="#E2B36B"/><path d="M385.668 78.8816 385.09 78.5487 385.09 83.8782 385.668 84.2111 385.668 78.8816ZM387.051 79.6826 386.473 79.3498 386.473 84.6757 387.051 85.0122 387.051 79.6826ZM388.437 80.4837 387.859 80.1472 387.859 85.4767 388.437 85.8096 388.437 80.4837ZM389.824 81.2811 389.242 80.9483 389.242 86.2778 389.824 86.6107 389.824 81.2811ZM391.206 82.0822 390.628 81.7457 390.628 87.0752 391.206 87.4118 391.206 82.0822ZM392.593 82.8796 392.015 82.5468 392.015 87.8763 392.593 88.2092 392.593 82.8796ZM393.979 83.6807 393.397 83.3478 393.397 88.6774 393.979 89.0103 393.979 83.6807ZM395.362 84.4818 394.784 84.1453 394.784 89.4748 395.362 89.8077 395.362 84.4818Z" fill="#E1CBA9"/><path d="M396.997 93.4509 393.91 91.6659 393.91 98.9049 396.997 100.686 396.997 93.4509ZM451.485 120.428 396.997 88.9664 396.997 100.686 451.485 132.144 451.485 120.428Z" fill="#283961"/><path d="M451.485 116.704 396.997 85.2426 396.997 90.5685 451.485 122.03 451.485 116.704Z" fill="#E2B36B"/><path d="M397.575 85.5792 396.997 85.2426 396.997 90.5722 397.575 90.9087 397.575 85.5792ZM399.261 86.5522 398.683 86.2156 398.683 91.5452 399.261 91.8781 399.261 86.5522ZM400.944 87.5215 400.366 87.1886 400.366 92.5182 400.944 92.8511 400.944 87.5215ZM402.63 88.4945 402.052 88.1616 402.052 93.4912 402.63 93.8241 402.63 88.4945ZM404.316 89.4675 403.735 89.1346 403.735 94.4642 404.316 94.7971 404.316 89.4675ZM405.999 90.4405 405.421 90.1076 405.421 95.4372 405.999 95.7701 405.999 90.4405ZM407.685 91.4135 407.104 91.0806 407.104 96.4102 407.685 96.7431 407.685 91.4135ZM409.368 92.3865 408.79 92.0536 408.79 97.3795 409.368 97.716 409.368 92.3865ZM411.054 93.3595 410.476 93.0266 410.476 98.3525 411.054 98.6891 411.054 93.3595ZM412.737 94.3325 412.159 93.996 412.159 99.3255 412.737 99.6621 412.737 94.3325ZM414.423 95.3055 413.845 94.969 413.845 100.299 414.423 100.635 414.423 95.3055ZM416.106 96.2785 415.528 95.942 415.528 101.272 416.106 101.604 416.106 96.2785ZM417.792 97.2515 417.214 96.915 417.214 102.245 417.792 102.577 417.792 97.2515ZM419.478 98.2208 418.897 97.888 418.897 103.218 419.478 103.55 419.478 98.2208ZM421.161 99.1938 420.583 98.861 420.583 104.191 421.161 104.523 421.161 99.1938ZM422.847 100.167 422.266 99.834 422.266 105.164 422.847 105.496 422.847 100.167ZM424.53 101.14 423.952 100.807 423.952 106.137 424.53 106.469 424.53 101.14ZM426.216 102.113 425.638 101.78 425.638 107.11 426.216 107.442 426.216 102.113ZM427.899 103.086 427.321 102.753 427.321 108.079 427.899 108.415 427.899 103.086ZM429.585 104.059 429.007 103.726 429.007 109.052 429.585 109.388 429.585 104.059ZM431.271 105.032 430.69 104.695 430.69 110.025 431.271 110.361 431.271 105.032ZM432.954 106.005 432.376 105.668 432.376 110.998 432.954 111.334 432.954 106.005ZM434.64 106.978 434.059 106.641 434.059 111.971 434.64 112.304 434.64 106.978ZM436.323 107.951 435.745 107.614 435.745 112.944 436.323 113.277 436.323 107.951ZM438.009 108.92 437.431 108.587 437.431 113.917 438.009 114.25 438.009 108.92ZM439.692 109.893 439.114 109.56 439.114 114.89 439.692 115.223 439.692 109.893ZM441.378 110.866 440.8 110.533 440.8 115.863 441.378 116.196 441.378 110.866ZM443.061 111.839 442.483 111.506 442.483 116.836 443.061 117.169 443.061 111.839ZM444.747 112.812 444.169 112.479 444.169 117.809 444.747 118.142 444.747 112.812ZM446.433 113.785 445.852 113.452 445.852 118.778 446.433 119.115 446.433 113.785ZM448.116 114.758 447.538 114.425 447.538 119.751 448.116 120.088 448.116 114.758ZM449.802 115.731 449.221 115.395 449.221 120.724 449.802 121.061 449.802 115.731ZM451.485 116.704 450.907 116.368 450.907 121.697 451.485 122.034 451.485 116.704Z" fill="#E1CBA9"/><path d="M451.485 116.704C451.485 116.704 452.553 130.718 452.685 130.718 452.813 130.718 451.485 132.144 451.485 132.144" fill="#283961"/><path d="M451.485 201.476 389.121 165.468 389.121 167.523 451.485 203.532 451.485 201.476Z" fill="#6D8ACA"/><path d="M461.244 133.092 453.954 137.302 455.34 138.103 462.63 133.893 461.244 133.092ZM464.869 135.188 457.583 139.394 458.969 140.195 466.259 135.989 464.869 135.188ZM468.498 137.284 461.208 141.49 462.598 142.291 469.884 138.081 468.498 137.284ZM472.126 139.376 464.836 143.586 466.222 144.383 473.513 140.177 472.126 139.376ZM475.751 141.472 468.465 145.678 469.851 146.479 477.141 142.273 475.751 141.472ZM479.38 143.564 472.09 147.774 473.48 148.572 480.766 144.365 479.38 143.564ZM487.047 158.755 479.142 163.32 479.142 165.193 487.047 160.632 487.047 158.755ZM487.061 163.273 479.157 167.838 479.157 169.711 487.061 165.146 487.061 163.273ZM487.08 167.79 479.171 172.355 479.171 174.228 487.08 169.663 487.08 167.79ZM487.094 172.308 479.186 176.873 479.186 178.746 487.094 174.181 487.094 172.308ZM487.109 176.825 479.201 181.39 479.201 183.263 487.109 178.698 487.109 176.825ZM487.124 181.343 479.215 185.908 479.215 187.781 487.124 183.216 487.124 181.343ZM487.138 185.86 479.23 190.425 479.23 192.298 487.138 187.733 487.138 185.86ZM487.153 190.378 479.245 194.943 479.245 196.816 487.153 192.251 487.153 190.378ZM487.168 194.895 479.259 199.46 479.259 201.333 487.168 196.768 487.168 194.895ZM487.182 199.413 479.274 203.974 479.274 205.851 487.182 201.286 487.182 199.413Z" fill="#283961"/></g></svg>