<svg width="139" height="139" xmlns="http://www.w3.org/2000/svg" xmlns:xlink="http://www.w3.org/1999/xlink" xml:space="preserve" overflow="hidden"><g transform="translate(-548 -79)"><path d="M678.817 156.097C678.817 151.803 676.206 146.81 672.987 144.952L572.636 87.0145C569.417 85.1562 566.805 87.1315 566.805 91.4259L566.805 140.676C566.805 144.97 569.417 149.963 572.636 151.821L672.987 209.759C676.206 211.617 678.817 209.638 678.817 205.347L678.817 156.097Z" stroke="#000000" stroke-width="0.135748" fill="#FFFFFF"/><path d="M556.991 93.2658 569.004 86.6121 571.886 92.0148 566.805 98.8807 556.991 93.2658ZM665.451 216.614 677.032 209.927 666.527 203.174 665.451 216.614Z" stroke="#000000" stroke-width="0.135748" fill="#FFFFFF"/><path d="M667.562 162.594C667.562 158.303 664.947 153.31 661.728 151.452L561.381 93.5145C558.162 91.6563 555.546 93.6315 555.546 97.9223L555.546 147.176C555.546 151.467 558.162 156.46 561.381 158.318L661.728 216.256C664.947 218.114 667.562 216.138 667.562 211.847L667.562 162.594Z" stroke="#000000" stroke-width="0.135748" fill="#FFFFFF"/><path d="M611.439 154.781C611.439 154.781 594.803 122.913 587.289 111.852 586.569 110.791 584.411 107.147 583.449 106.218 582.362 105.172 579.557 103.972 578.69 103.471L561.146 93.3427C557.928 91.4844 555.316 93.4597 555.316 97.754L555.316 147.004C555.316 151.298 557.928 156.291 561.146 158.15L580.42 169.273C581.404 169.844 586.328 170.063 587.805 169.602 592.48 168.147 611.439 157.729 611.439 157.729L611.439 154.781ZM607.232 152.469C607.232 152.469 593.091 125.378 586.704 115.974 586.09 115.07 584.257 111.976 583.438 111.182 582.516 110.293 580.127 109.273 579.392 108.848L564.479 100.238C561.743 98.6575 559.522 100.337 559.522 103.987L559.522 145.859C559.522 149.506 561.743 153.753 564.479 155.333L580.862 164.792C581.7 165.275 585.885 165.462 587.14 165.07 591.116 163.834 607.232 154.978 607.232 154.978L607.232 152.469Z" stroke="#000000" stroke-width="0.135748" fill="#FFFFFF"/><path d="M611.439 154.817C611.439 154.817 628.075 186.685 635.588 197.746 636.309 198.807 638.467 202.45 639.429 203.383 640.516 204.429 643.321 205.629 644.188 206.13L661.728 216.256C664.947 218.114 667.562 216.138 667.562 211.847L667.562 162.594C667.562 158.303 664.947 153.31 661.728 151.452L642.458 140.325C641.474 139.754 636.55 139.535 635.073 139.995 630.398 141.451 611.439 151.869 611.439 151.869L611.439 154.817ZM615.646 157.129C615.646 157.129 629.787 184.219 636.174 193.624 636.788 194.527 638.621 197.626 639.44 198.416 640.362 199.305 642.75 200.325 643.486 200.753L658.399 209.36C661.135 210.94 663.355 209.261 663.355 205.611L663.355 163.742C663.355 160.092 661.135 155.849 658.399 154.268L642.015 144.809C641.177 144.323 636.993 144.136 635.738 144.527 631.762 145.768 615.646 154.623 615.646 154.623L615.646 157.129Z" stroke="#000000" stroke-width="0.135748" fill="#FFFFFF"/><path d="M607.232 152.469C607.232 152.469 593.091 125.378 586.704 115.974 586.09 115.07 584.257 111.976 583.438 111.182 582.516 110.293 580.127 109.273 579.392 108.848L564.479 100.238C561.743 98.6575 559.522 100.337 559.522 103.987L559.522 145.859C559.522 149.506 561.743 153.753 564.479 155.333L580.862 164.792C581.7 165.275 585.885 165.462 587.14 165.07 591.116 163.834 607.232 154.978 607.232 154.978L607.232 152.469ZM615.646 157.129C615.646 157.129 629.787 184.219 636.174 193.624 636.788 194.527 638.621 197.626 639.44 198.416 640.362 199.305 642.75 200.325 643.486 200.753L658.399 209.36C661.135 210.94 663.355 209.261 663.355 205.611L663.355 163.742C663.355 160.092 661.135 155.849 658.399 154.268L642.015 144.809C641.177 144.323 636.993 144.136 635.738 144.527 631.762 145.768 615.646 154.623 615.646 154.623L615.646 157.129Z" stroke="#000000" stroke-width="0.135748" fill="#FFFFFF"/><path d="M612.712 151.174 608.081 153.848 610.586 158.193 614.479 155.947 612.712 151.174Z" stroke="#000000" stroke-width="0.135748" fill="#FFFFFF"/><path d="M570.28 134.783 568.865 133.967C568.711 133.667 568.638 133.027 568.638 132.039L568.638 132.029 568.645 131.59 568.66 130.65C568.66 130.397 568.513 130.185 568.217 130.017L568.217 133.583 566.805 132.767 566.805 125.331 568.55 126.337C568.953 126.571 569.307 126.883 569.589 127.255 569.876 127.61 570.032 128.053 570.031 128.51L570.031 129.402C570.031 129.98 569.742 130.203 569.157 130.068 569.742 130.569 570.039 131.147 570.039 131.805L570.017 132.606C570.017 133.799 570.105 134.523 570.28 134.783ZM568.652 128.97 568.652 127.741C568.652 127.482 568.51 127.27 568.217 127.101L568.217 129.113C568.51 129.281 568.652 129.234 568.652 128.97ZM573.422 130.123 572.632 129.665 572.632 136.133 571.22 135.317 571.22 128.85 570.427 128.393 570.427 127.423 573.422 129.153 573.422 130.123ZM577.695 139.055 576.177 138.177 575.529 135.412 574.926 137.453 573.572 136.674 574.684 133.089 573.861 129.402 575.222 130.189 575.723 132.636 576.286 130.803 577.556 131.538 576.59 134.424 577.695 139.055ZM579.484 136.97 580.782 137.72 580.782 139.483C580.782 139.666 580.866 139.805 581.038 139.904 581.206 140.003 581.294 139.962 581.294 139.78L581.294 138.057C581.302 137.889 581.257 137.723 581.166 137.581 581.034 137.422 580.871 137.292 580.687 137.197L580.687 136.359C581.089 136.59 581.294 136.564 581.294 136.272L581.294 134.955C581.294 134.805 581.206 134.684 581.038 134.585 580.859 134.483 580.771 134.505 580.771 134.655L580.771 136.023 579.52 135.299 579.52 133.92C579.52 133.042 580.043 132.906 581.097 133.514 581.517 133.759 581.887 134.077 582.201 134.468 582.503 134.824 582.67 135.275 582.673 135.741L582.673 136.762C582.673 137.358 582.428 137.614 581.938 137.537 582.444 138.002 582.721 138.665 582.695 139.352L582.695 140.456C582.695 141.491 582.161 141.7 581.1 141.089 580.021 140.464 579.484 139.684 579.484 138.744L579.484 136.97ZM582.944 140.815 582.944 136.027C582.944 135.065 583.5 134.904 584.612 135.544 585.702 136.173 586.247 136.967 586.247 137.925L586.247 142.71C586.247 143.138 586.093 143.383 585.786 143.441 585.479 143.5 585.084 143.39 584.601 143.108 584.134 142.847 583.726 142.494 583.401 142.069 583.115 141.713 582.954 141.272 582.944 140.815ZM584.831 141.982 584.831 136.915C584.831 136.766 584.755 136.648 584.601 136.561 584.44 136.465 584.359 136.495 584.359 136.641L584.359 141.711C584.359 141.857 584.44 141.978 584.601 142.073 584.755 142.161 584.831 142.132 584.831 141.982ZM586.518 141.042 587.893 141.835 587.893 143.73C587.893 143.891 587.974 144.019 588.131 144.111 588.284 144.198 588.361 144.162 588.361 144.001L588.361 141.791C588.259 141.857 588.072 141.81 587.794 141.649 587.428 141.439 587.113 141.15 586.872 140.804 586.646 140.489 586.522 140.112 586.518 139.725L586.518 137.991C586.518 137.559 586.664 137.311 586.96 137.248 587.257 137.186 587.644 137.292 588.12 137.57 588.606 137.848 588.998 138.192 589.294 138.594 589.574 138.951 589.731 139.389 589.74 139.842L589.74 144.634C589.74 145.596 589.199 145.764 588.112 145.135 587.048 144.52 586.518 143.737 586.518 142.783L586.518 141.042ZM588.361 140.749 588.361 138.964C588.363 138.805 588.273 138.658 588.131 138.587 587.974 138.496 587.893 138.532 587.893 138.693L587.893 140.478C587.893 140.639 587.974 140.767 588.131 140.859 588.284 140.946 588.361 140.91 588.361 140.749ZM590 144.89 590 140.102C590 139.136 590.556 138.975 591.668 139.619 592.758 140.248 593.303 141.042 593.303 141.996L593.303 146.784C593.303 147.212 593.149 147.458 592.842 147.512 592.535 147.571 592.14 147.461 591.657 147.183 591.189 146.923 590.78 146.568 590.457 146.141 590.171 145.785 590.01 145.346 590 144.89ZM591.888 146.057 591.888 140.99C591.888 140.84 591.811 140.723 591.657 140.632 591.496 140.54 591.416 140.57 591.416 140.716L591.416 145.782C591.416 145.932 591.496 146.053 591.657 146.148 591.811 146.236 591.888 146.203 591.888 146.057Z" stroke="#000000" stroke-width="0.135748" fill="#FFFFFF"/><path d="M643.661 151.69C653.088 157.133 660.74 170.393 660.74 181.278 660.74 192.164 653.088 196.583 643.661 191.14 634.231 185.697 626.579 172.437 626.579 161.551 626.579 150.669 634.231 146.247 643.661 151.69Z" stroke="#000000" stroke-width="0.135748" fill="#FFFFFF"/><path d="M642.198 152.535C651.625 157.978 659.281 171.234 659.281 182.12 659.281 193.006 651.625 197.424 642.198 191.981 632.772 186.538 625.116 173.282 625.116 162.396 625.116 151.51 632.772 147.092 642.198 152.535Z" stroke="#000000" stroke-width="0.135748" fill="#FFFFFF"/><path d="M642.198 166.65C644.879 168.198 647.056 171.969 647.056 175.064 647.056 178.158 644.879 179.413 642.198 177.866 639.517 176.318 637.341 172.551 637.341 169.456 637.341 166.358 639.517 165.103 642.198 166.65Z" stroke="#000000" stroke-width="0.135748" fill="#FFFFFF"/><path d="M642.198 167.975C644.247 169.156 645.907 172.035 645.907 174.402 645.907 176.765 644.247 177.723 642.198 176.541 640.15 175.36 638.489 172.481 638.489 170.118 638.489 167.751 640.15 166.793 642.198 167.975Z" stroke="#000000" stroke-width="0.135748" fill="#FFFFFF"/><path d="M639.864 151.745C635.369 149.147 631.722 150.237 631.722 154.17 631.722 158.106 635.369 163.41 639.864 166.003 638.515 163.563 637.421 160.308 637.421 157.462 637.421 154.62 638.515 152.63 639.864 151.745ZM651.325 160.875C647.652 155.765 643.087 153.296 641.145 155.362 639.199 157.429 640.603 163.252 644.279 168.362 643.998 165.956 644.4 163.336 645.805 161.84 647.209 160.348 649.401 160.216 651.325 160.875Z" stroke="#000000" stroke-width="0.135748" fill="#FFFFFF"/><path d="M658.714 177.017C658.033 171.493 654.745 165.915 651.376 164.565 648.007 163.219 645.827 166.61 646.507 172.134 647.725 171.047 649.807 170.597 652.239 171.574 654.675 172.547 657.086 174.789 658.714 177.017Z" stroke="#000000" stroke-width="0.135748" fill="#FFFFFF"/><path d="M655.103 191.18C658.695 190.138 659.807 185.478 657.587 180.785 655.367 176.091 650.648 173.129 647.056 174.175 649.071 175.846 651.427 178.718 653.033 182.109 654.635 185.503 655.242 188.883 655.103 191.18ZM641.92 190.975C646.214 194.984 650.615 195.347 651.742 191.784 652.872 188.217 650.3 182.069 646.006 178.056 646.818 180.766 647.111 184.121 646.295 186.696 645.479 189.271 643.683 190.672 641.92 190.975Z" stroke="#000000" stroke-width="0.135748" fill="#FFFFFF"/><path d="M631.572 180.393C634.25 186.107 638.719 190.101 641.543 189.311 644.364 188.521 644.481 183.239 641.803 177.525 641.412 179.574 640.183 181.491 638.141 182.065 636.1 182.635 633.569 181.772 631.572 180.393Z" stroke="#000000" stroke-width="0.135748" fill="#FFFFFF"/><path d="M626.016 167.532C626.436 172.821 629.534 178.407 632.936 179.995 636.338 181.582 638.756 178.575 638.339 173.282 637.026 174.2 634.864 174.431 632.406 173.282 629.948 172.137 627.581 169.789 626.016 167.532Z" stroke="#000000" stroke-width="0.135748" fill="#FFFFFF"/><path d="M626.231 156.024C624.574 159.763 625.789 165.48 628.938 168.783 632.088 172.082 635.994 171.728 637.651 167.986 635.822 167.711 633.317 166.424 631.042 164.039 628.895 161.733 627.256 159.003 626.231 156.024Z" stroke="#000000" stroke-width="0.135748" fill="#FFFFFF"/><path d="M585.362 89.4067 574.139 82.9286 574.139 94.2607 585.362 100.743 585.362 89.4067Z" stroke="#000000" stroke-width="0.135748" fill="#FFFFFF"/><path d="M585.362 85.4818 574.139 79 574.139 84.3296 585.362 90.8077 585.362 85.4818Z" stroke="#000000" stroke-width="0.135748" fill="#FFFFFF"/><path d="M575.668 79.8816 575.09 79.5487 575.09 84.8782 575.668 85.2111 575.668 79.8816ZM577.051 80.6826 576.473 80.3498 576.473 85.6757 577.051 86.0122 577.051 80.6826ZM578.437 81.4837 577.859 81.1472 577.859 86.4767 578.437 86.8096 578.437 81.4837ZM579.824 82.2811 579.242 81.9483 579.242 87.2778 579.824 87.6107 579.824 82.2811ZM581.206 83.0822 580.628 82.7457 580.628 88.0752 581.206 88.4118 581.206 83.0822ZM582.593 83.8796 582.015 83.5468 582.015 88.8763 582.593 89.2092 582.593 83.8796ZM583.979 84.6807 583.397 84.3478 583.397 89.6774 583.979 90.0103 583.979 84.6807ZM585.362 85.4818 584.784 85.1453 584.784 90.4748 585.362 90.8077 585.362 85.4818Z" stroke="#000000" stroke-width="0.135748" fill="#FFFFFF"/><path d="M586.997 94.451 583.909 92.6658 583.909 99.9048 586.997 101.686 586.997 94.451ZM641.485 121.428 586.997 89.9664 586.997 101.686 641.485 133.144 641.485 121.428Z" stroke="#000000" stroke-width="0.135748" fill="#FFFFFF"/><path d="M641.485 117.704 586.997 86.2426 586.997 91.5685 641.485 123.03 641.485 117.704Z" stroke="#000000" stroke-width="0.135748" fill="#FFFFFF"/><path d="M587.575 86.5792 586.997 86.2426 586.997 91.5722 587.575 91.9087 587.575 86.5792ZM589.261 87.5522 588.683 87.2156 588.683 92.5452 589.261 92.878 589.261 87.5522ZM590.944 88.5215 590.366 88.1886 590.366 93.5182 590.944 93.851 590.944 88.5215ZM592.63 89.4945 592.052 89.1616 592.052 94.4912 592.63 94.824 592.63 89.4945ZM594.316 90.4675 593.735 90.1346 593.735 95.4642 594.316 95.797 594.316 90.4675ZM595.999 91.4405 595.421 91.1076 595.421 96.4372 595.999 96.77 595.999 91.4405ZM597.685 92.4135 597.104 92.0806 597.104 97.4102 597.685 97.743 597.685 92.4135ZM599.368 93.3865 598.79 93.0537 598.79 98.3795 599.368 98.716 599.368 93.3865ZM601.054 94.3595 600.476 94.0267 600.476 99.3525 601.054 99.689 601.054 94.3595ZM602.737 95.3325 602.159 94.996 602.159 100.326 602.737 100.662 602.737 95.3325ZM604.423 96.3055 603.845 95.969 603.845 101.299 604.423 101.635 604.423 96.3055ZM606.106 97.2785 605.528 96.942 605.528 102.271 606.106 102.604 606.106 97.2785ZM607.792 98.2515 607.214 97.915 607.214 103.245 607.792 103.577 607.792 98.2515ZM609.478 99.2208 608.897 98.888 608.897 104.218 609.478 104.55 609.478 99.2208ZM611.161 100.194 610.583 99.861 610.583 105.191 611.161 105.523 611.161 100.194ZM612.847 101.167 612.266 100.834 612.266 106.164 612.847 106.496 612.847 101.167ZM614.53 102.14 613.952 101.807 613.952 107.137 614.53 107.469 614.53 102.14ZM616.216 103.113 615.638 102.78 615.638 108.11 616.216 108.442 616.216 103.113ZM617.899 104.086 617.321 103.753 617.321 109.079 617.899 109.415 617.899 104.086ZM619.585 105.059 619.007 104.726 619.007 110.052 619.585 110.388 619.585 105.059ZM621.271 106.032 620.69 105.695 620.69 111.025 621.271 111.361 621.271 106.032ZM622.954 107.005 622.376 106.668 622.376 111.998 622.954 112.334 622.954 107.005ZM624.64 107.978 624.059 107.641 624.059 112.971 624.64 113.304 624.64 107.978ZM626.323 108.951 625.745 108.614 625.745 113.944 626.323 114.277 626.323 108.951ZM628.009 109.92 627.431 109.587 627.431 114.917 628.009 115.25 628.009 109.92ZM629.692 110.893 629.114 110.56 629.114 115.89 629.692 116.223 629.692 110.893ZM631.378 111.866 630.8 111.533 630.8 116.863 631.378 117.196 631.378 111.866ZM633.061 112.839 632.483 112.506 632.483 117.836 633.061 118.169 633.061 112.839ZM634.747 113.812 634.169 113.479 634.169 118.809 634.747 119.142 634.747 113.812ZM636.433 114.785 635.852 114.452 635.852 119.778 636.433 120.115 636.433 114.785ZM638.116 115.758 637.538 115.425 637.538 120.751 638.116 121.088 638.116 115.758ZM639.802 116.731 639.221 116.395 639.221 121.724 639.802 122.061 639.802 116.731ZM641.485 117.704 640.907 117.368 640.907 122.697 641.485 123.034 641.485 117.704Z" stroke="#000000" stroke-width="0.135748" fill="#FFFFFF"/><path d="M641.485 117.704C641.485 117.704 642.553 131.718 642.685 131.718 642.813 131.718 641.485 133.144 641.485 133.144" stroke="#000000" stroke-width="0.135748" fill="#FFFFFF"/><path d="M641.485 202.476 579.121 166.468 579.121 168.523 641.485 204.532 641.485 202.476Z" stroke="#000000" stroke-width="0.135748" fill="#FFFFFF"/><path d="M651.244 134.092 643.954 138.302 645.34 139.103 652.63 134.893 651.244 134.092ZM654.869 136.188 647.583 140.394 648.969 141.195 656.259 136.989 654.869 136.188ZM658.498 138.284 651.208 142.49 652.597 143.291 659.884 139.081 658.498 138.284ZM662.126 140.376 654.836 144.586 656.222 145.383 663.513 141.177 662.126 140.376ZM665.751 142.472 658.465 146.678 659.851 147.479 667.141 143.273 665.751 142.472ZM669.38 144.564 662.09 148.774 663.48 149.572 670.766 145.365 669.38 144.564ZM677.047 159.755 669.142 164.32 669.142 166.193 677.047 161.632 677.047 159.755ZM677.062 164.273 669.157 168.838 669.157 170.711 677.062 166.146 677.062 164.273ZM677.08 168.79 669.172 173.355 669.172 175.228 677.08 170.663 677.08 168.79ZM677.094 173.308 669.186 177.873 669.186 179.746 677.094 175.181 677.094 173.308ZM677.109 177.825 669.201 182.39 669.201 184.263 677.109 179.698 677.109 177.825ZM677.124 182.343 669.215 186.908 669.215 188.781 677.124 184.216 677.124 182.343ZM677.138 186.86 669.23 191.425 669.23 193.298 677.138 188.733 677.138 186.86ZM677.153 191.378 669.245 195.943 669.245 197.816 677.153 193.251 677.153 191.378ZM677.167 195.895 669.259 200.46 669.259 202.333 677.167 197.768 677.167 195.895ZM677.182 200.413 669.274 204.974 669.274 206.851 677.182 202.286 677.182 200.413Z" stroke="#000000" stroke-width="0.135748" fill="#FFFFFF"/></g></svg>