<svg width="96" height="96" xmlns="http://www.w3.org/2000/svg" xmlns:xlink="http://www.w3.org/1999/xlink" xml:space="preserve" overflow="hidden"><g transform="translate(-592 -312)"><path d="M611 337C611 339.761 608.761 342 606 342 603.239 342 601 339.761 601 337 601 334.239 603.239 332 606 332 608.761 332 611 334.239 611 337Z" fill="#FFFFFF"/><path d="M617.93 362.43C617.985 362.136 617.985 361.834 617.93 361.54L616.5 355.29 616 352.72 616 352.72 614.72 346.92C614.615 346.475 614.361 346.08 614 345.8 612.8 344.863 611.447 344.142 610 343.67 607.388 342.777 604.552 342.777 601.94 343.67 600.513 344.147 599.18 344.867 598 345.8 597.654 346.086 597.414 346.481 597.32 346.92L594.06 361.44C593.775 362.559 594.451 363.696 595.57 363.981 595.596 363.988 595.623 363.994 595.65 364 595.766 364.01 595.884 364.01 596 364 596.956 364.022 597.795 363.364 598 362.43L601 349 601 356.1 598 371 601 371 601 388 605 388 605 371 607 371 607 388 611 388 611 371 614 371 611 356.11 611 349 614 362.43C614.205 363.364 615.044 364.022 616 364 616.922 363.968 617.711 363.327 617.93 362.43Z" fill="#FFFFFF"/><path d="M637 337C637 339.761 634.761 342 632 342 629.239 342 627 339.761 627 337 627 334.239 629.239 332 632 332 634.761 332 637 334.239 637 337Z" fill="#FFFFFF"/><path d="M642 352.72 642 352.78 640.7 346.92C640.605 346.481 640.366 346.086 640.02 345.8 635.318 342.129 628.722 342.129 624.02 345.8 623.67 346.083 623.429 346.479 623.34 346.92L620.07 361.54C619.844 362.649 620.559 363.732 621.669 363.959 621.801 363.986 621.935 363.999 622.07 364 623 363.989 623.8 363.339 624 362.43L627 349 627 388 631 388 631 365 633 365 633 388 637 388 637 349 640.09 362.43C640.288 363.331 641.077 363.98 642 364L642 364C642.956 364.022 643.795 363.364 644 362.43Z" fill="#FFFFFF"/><path d="M676.1 375.13C673.909 382.735 665.968 387.124 658.363 384.933 652.214 383.162 647.985 377.529 648 371.13 648 371 648 370.87 648 370.73L646.45 365.54C643.009 374.178 647.222 383.969 655.86 387.41 664.498 390.851 674.289 386.638 677.73 378Z" fill="#FFFFFF"/><path d="M685.72 376.81 678.24 363.76C677.793 362.99 676.971 362.514 676.08 362.51L666.08 362.51C666.09 362.4 666.09 362.29 666.08 362.18L664.63 351C664.288 348.453 661.948 346.663 659.4 347 658.944 347.066 658.499 347.197 658.08 347.39 657.868 347.446 657.664 347.527 657.47 347.63L647.47 353.48C646.476 354.066 646.01 355.254 646.34 356.36L649.34 366.41C649.654 367.467 650.627 368.191 651.73 368.19 651.974 368.191 652.216 368.158 652.45 368.09 653.77 367.686 654.519 366.295 654.13 364.97L651.67 356.81 655.2 354.75 656.83 363.75C657.235 365.973 659.171 367.588 661.43 367.59 661.712 367.588 661.993 367.561 662.27 367.51L662.36 367.51 674.61 367.57 681.38 379.37C681.823 380.15 682.652 380.632 683.55 380.63 684.931 380.633 686.052 379.516 686.055 378.135 686.056 377.694 685.94 377.262 685.72 376.88Z" fill="#FFFFFF"/><path d="M664.54 340.64C664.54 343.401 662.301 345.64 659.54 345.64 656.779 345.64 654.54 343.401 654.54 340.64 654.54 337.879 656.779 335.64 659.54 335.64 662.301 335.64 664.54 337.879 664.54 340.64Z" fill="#FFFFFF"/></g></svg>