<svg width="78" height="78" xmlns="http://www.w3.org/2000/svg" xmlns:xlink="http://www.w3.org/1999/xlink" xml:space="preserve" overflow="hidden"><g transform="translate(-530 -179)"><path d="M582 234.25 582 240.75 536.5 240.75 536.5 234.25C536.5 234.25 536.5 221.25 559.25 221.25 582 221.25 582 234.25 582 234.25M570.625 203.375C570.625 197.093 565.532 192 559.25 192 552.968 192 547.875 197.093 547.875 203.375 547.875 209.657 552.968 214.75 559.25 214.75 565.532 214.75 570.625 209.657 570.625 203.375M581.805 221.25C585.849 224.38 588.301 229.14 588.5 234.25L588.5 240.75 601.5 240.75 601.5 234.25C601.5 234.25 601.5 222.452 581.805 221.25M578.75 192C576.513 191.988 574.325 192.656 572.477 193.917 576.525 199.573 576.525 207.177 572.477 212.833 574.325 214.094 576.513 214.762 578.75 214.75 585.032 214.75 590.125 209.657 590.125 203.375 590.125 197.093 585.032 192 578.75 192Z" stroke="#0D0D0D" stroke-width="3.24997" fill="#0D0D0D"/></g></svg>