<svg width="4400" height="2475" xmlns="http://www.w3.org/2000/svg" xmlns:xlink="http://www.w3.org/1999/xlink" xml:space="preserve" overflow="hidden"><defs><clipPath id="clip0"><rect x="0" y="0" width="4400" height="2475"/></clipPath></defs><g clip-path="url(#clip0)"><rect x="0" y="0" width="4400" height="2475" fill="#EEEEEE"/><rect x="0.000183105" y="-0.000180446" width="344" height="2475" fill="#3B26BC"/><path d="M416.5 272.062 4350.1 272.063 4350.1 278.938 416.5 278.937ZM416.5 289.25C408.906 289.25 402.75 283.094 402.75 275.5 402.75 267.906 408.906 261.75 416.5 261.75 424.094 261.75 430.25 267.906 430.25 275.5 430.25 283.094 424.094 289.25 416.5 289.25ZM4350.1 261.75C4357.69 261.75 4363.85 267.906 4363.85 275.5 4363.85 283.094 4357.69 289.25 4350.1 289.25 4342.51 289.25 4336.35 283.094 4336.35 275.5 4336.35 267.906 4342.51 261.75 4350.1 261.75Z" fill="#3B26BC"/></g></svg>