<svg width="4400" height="2475" xmlns="http://www.w3.org/2000/svg" xmlns:xlink="http://www.w3.org/1999/xlink" xml:space="preserve" overflow="hidden"><defs><clipPath id="clip0"><rect x="0" y="0" width="4400" height="2475"/></clipPath></defs><g clip-path="url(#clip0)"><rect x="0" y="0" width="4400" height="2475" fill="#EEEEEE"/><rect x="0.000183105" y="-0.000180446" width="344" height="2475" fill="#3B26BC"/><path d="M413.506 234.063 4332.26 240.938 4332.24 247.813 413.494 240.938ZM413.476 251.25C405.882 251.237 399.737 245.07 399.75 237.476 399.763 229.882 405.93 223.737 413.524 223.75 421.118 223.763 427.263 229.93 427.25 237.524 427.237 245.118 421.07 251.263 413.476 251.25ZM4332.27 230.625C4339.87 230.638 4346.01 236.805 4346 244.399 4345.99 251.993 4339.82 258.138 4332.23 258.125 4324.63 258.112 4318.49 251.945 4318.5 244.351 4318.51 236.757 4324.68 230.612 4332.27 230.625Z" fill="#3B26BC"/></g></svg>