<svg width="4400" height="2475" xmlns="http://www.w3.org/2000/svg" xmlns:xlink="http://www.w3.org/1999/xlink" xml:space="preserve" overflow="hidden"><defs><clipPath id="clip0"><rect x="0" y="0" width="4400" height="2475"/></clipPath></defs><g clip-path="url(#clip0)"><rect x="0" y="0" width="4400" height="2475" fill="#EEEEEE"/><rect x="0.000183105" y="-0.000180446" width="344" height="2475" fill="#3B26BC"/><path d="M413.506 234.063 4332.26 240.938 4332.24 247.813 413.494 240.938ZM413.476 251.25C405.882 251.237 399.737 245.07 399.75 237.476 399.763 229.882 405.93 223.737 413.524 223.75 421.118 223.763 427.263 229.93 427.25 237.524 427.237 245.118 421.07 251.263 413.476 251.25ZM4332.27 230.625C4339.87 230.638 4346.01 236.805 4346 244.399 4345.99 251.993 4339.82 258.138 4332.23 258.125 4324.63 258.112 4318.49 251.945 4318.5 244.351 4318.51 236.757 4324.68 230.612 4332.27 230.625Z" fill="#3B26BC"/><path d="M413 334.512C413 318.765 425.765 306 441.512 306L1312.49 306C1328.23 306 1341 318.765 1341 334.512L1341 670.488C1341 686.235 1328.23 699 1312.49 699L441.512 699C425.765 699 413 686.235 413 670.488Z" fill="#FFFFFF" fill-rule="evenodd"/><path d="M1409 334.512C1409 318.765 1421.77 306 1437.51 306L2309.49 306C2325.23 306 2338 318.765 2338 334.512L2338 670.488C2338 686.234 2325.23 699 2309.49 699L1437.51 699C1421.77 699 1409 686.234 1409 670.488Z" fill="#FFFFFF" fill-rule="evenodd"/><path d="M2406 334.512C2406 318.765 2418.77 306 2434.51 306L3305.49 306C3321.23 306 3334 318.765 3334 334.512L3334 670.488C3334 686.235 3321.23 699 3305.49 699L2434.51 699C2418.77 699 2406 686.235 2406 670.488Z" fill="#FFFFFF" fill-rule="evenodd"/><path d="M3403 334.512C3403 318.765 3415.77 306 3431.51 306L4302.49 306C4318.23 306 4331 318.765 4331 334.512L4331 670.488C4331 686.235 4318.23 699 4302.49 699L3431.51 699C3415.77 699 3403 686.235 3403 670.488Z" fill="#FFFFFF" fill-rule="evenodd"/><path d="M2869 1659.01C2869 1640.78 2883.78 1626 2902.01 1626L4297.99 1626C4316.22 1626 4331 1640.78 4331 1659.01L4331 2372.98C4331 2391.22 4316.22 2406 4297.99 2406L2902.01 2406C2883.78 2406 2869 2391.22 2869 2372.98Z" fill="#FFFFFF" fill-rule="evenodd"/><path d="M1290 1659.01C1290 1640.78 1304.78 1626 1323.01 1626L2766.99 1626C2785.22 1626 2800 1640.78 2800 1659.01L2800 2372.99C2800 2391.22 2785.22 2406 2766.99 2406L1323.01 2406C1304.78 2406 1290 2391.22 1290 2372.99Z" fill="#FFFFFF" fill-rule="evenodd"/><path d="M410 1659.01C410 1640.78 424.779 1626 443.009 1626L1185.99 1626C1204.22 1626 1219 1640.78 1219 1659.01L1219 2372.99C1219 2391.22 1204.22 2406 1185.99 2406L443.009 2406C424.779 2406 410 2391.22 410 2372.99Z" fill="#FFFFFF" fill-rule="evenodd"/><path d="M410 801.433C410 782.969 424.969 768 443.434 768L1656.57 768C1675.03 768 1690 782.969 1690 801.433L1690 1524.57C1690 1543.03 1675.03 1558 1656.57 1558L443.434 1558C424.969 1558 410 1543.03 410 1524.57Z" fill="#FFFFFF" fill-rule="evenodd"/><path d="M1757 801.432C1757 782.968 1771.97 768 1790.43 768L3074.57 768C3093.03 768 3108 782.968 3108 801.432L3108 1524.57C3108 1543.03 3093.03 1558 3074.57 1558L1790.43 1558C1771.97 1558 1757 1543.03 1757 1524.57Z" fill="#FFFFFF" fill-rule="evenodd"/><path d="M3175 794.432C3175 775.968 3189.97 761 3208.43 761L4297.57 761C4316.03 761 4331 775.968 4331 794.432L4331 1517.57C4331 1536.03 4316.03 1551 4297.57 1551L3208.43 1551C3189.97 1551 3175 1536.03 3175 1517.57Z" fill="#FFFFFF" fill-rule="evenodd"/><path d="M410.5 910.5 1690.62 910.5" stroke="#3B26BC" stroke-width="4.58333" stroke-linejoin="round" stroke-miterlimit="10" fill="none" fill-rule="evenodd"/><path d="M1757.5 910.5 3108.61 910.5" stroke="#3B26BC" stroke-width="4.58333" stroke-linejoin="round" stroke-miterlimit="10" fill="none" fill-rule="evenodd"/><path d="M3175.5 911.5 4332.15 911.5" stroke="#3B26BC" stroke-width="4.58333" stroke-linejoin="round" stroke-miterlimit="10" fill="none" fill-rule="evenodd"/><path d="M424.5 1773.5 1208.85 1773.5" stroke="#3B26BC" stroke-width="4.58333" stroke-linejoin="round" stroke-miterlimit="10" fill="none" fill-rule="evenodd"/><path d="M1290.5 1772.5 2801.04 1772.5" stroke="#3B26BC" stroke-width="4.58333" stroke-linejoin="round" stroke-miterlimit="10" fill="none" fill-rule="evenodd"/><path d="M2869.5 1772.5 4331.77 1772.5" stroke="#3B26BC" stroke-width="4.58333" stroke-linejoin="round" stroke-miterlimit="10" fill="none" fill-rule="evenodd"/></g></svg>