<svg width="96" height="96" xmlns="http://www.w3.org/2000/svg" xmlns:xlink="http://www.w3.org/1999/xlink" xml:space="preserve" overflow="hidden"><g transform="translate(-274 -211)"><path d="M289.998 225 287.998 225 287.998 293 355.967 293 355.967 291 289.998 291 289.998 225Z" stroke="#3B26BC"/><path d="M308 285.016 308 246.006 296 246.006 296 285.016ZM298 248.006 306 248.006 306 283.016 298 283.016Z" stroke="#3B26BC"/><path d="M324 285.016 324 225 312 225 312 285.016ZM314 227 322 227 322 283.016 314 283.016Z" stroke="#3B26BC"/><path d="M340 285.016 340 246.006 328 246.006 328 285.016ZM330 248.006 338 248.006 338 283.016 330 283.016Z" stroke="#3B26BC"/><path d="M344 285.016 356 285.016 356 263.011 344 263.011ZM346 265.011 354 265.011 354 283.016 346 283.016Z" stroke="#3B26BC"/></g></svg>